#!OML:ASF H:\GeneralSubjects\Female5\Project 1\Capture day 1\Session 1\Female5.ASF
:FULLY-SPECIFIED
:DEGREES
294
root 38.1581 15.9133 4.31306 10.2091 -131.362 4.26399
lowerback 16.3369 -1.78433 -15.551
upperback -12.5779 -6.1395 12.9515
thorax -22.0023 1.44177 29.4308
lowerneck -12.7124 -0.895787 -10.0225
upperneck 38.7379 -0.671792 -4.05926
head 16.034 -3.63846 -0.489646
rclavicle 2.78299e-015 1.33583e-013
rhumerus -62.2101 56.0346 -95.5153
rradius 51.8483
rwrist -20.9911
rhand -26.9638 -18.6703
rfingers 7.12502
rthumb -0.385114 -48.6497
lclavicle 2.78299e-015 1.33583e-013
lhumerus -74.8969 28.1679 74.4995
lradius 36.7898
lwrist -9.93543
lhand -28.585 27.7545
lfingers 7.12502
lthumb -1.95087 57.7253
rfemur -16.406 -13.6324 32.5274
rtibia 10.8428
rfoot -48.722 -28.5315
rtoes 29.0204
lfemur -8.11044 -1.01514 -29.1865
ltibia 13.5971
lfoot -44.6872 -12.2555
ltoes 2.20544
295
root 38.1452 15.9092 4.23985 10.3399 -134.366 3.76969
lowerback 15.8619 -1.69338 -15.3277
upperback -12.4813 -5.88852 12.6649
thorax -21.6698 1.34433 28.5295
lowerneck -12.5826 -0.759104 -10.0258
upperneck 38.8127 -0.703025 -3.73282
head 16.0334 -3.64553 -0.361355
rclavicle 1.39149e-014 -3.49861e-014
rhumerus -62.7801 55.5926 -96.7423
rradius 51.8233
rwrist -21.0248
rhand -26.8276 -18.4799
rfingers 7.12502
rthumb -0.253573 -48.4595
lclavicle 1.39149e-014 -3.49861e-014
lhumerus -75.124 27.6433 74.5107
lradius 36.4752
lwrist -10.2024
lhand -28.5472 28.4549
lfingers 7.12502
lthumb -1.91444 58.426
rfemur -15.6143 -12.4364 32.6027
rtibia 9.85533
rfoot -47.446 -28.416
rtoes 29.1291
lfemur -7.95867 0.630488 -29.2169
ltibia 14.8954
lfoot -44.0783 -13.4422
ltoes 2.38661
296
root 38.1337 15.9041 4.16106 10.3487 -137.436 3.44594
lowerback 15.3611 -1.59529 -15.0256
upperback -12.3794 -5.60876 12.3812
thorax -21.3356 1.2526 27.5891
lowerneck -12.4312 -0.608399 -10.024
upperneck 38.866 -0.728143 -3.38056
head 16.0157 -3.64517 -0.220301
rclavicle 9.93923e-015 -1.33583e-013
rhumerus -63.3907 55.1421 -97.9517
rradius 51.7363
rwrist -21.0562
rhand -26.6257 -18.3943
rfingers 7.12502
rthumb -0.058602 -48.3741
lclavicle 9.93923e-015 -1.33583e-013
lhumerus -75.1557 27.0719 74.5401
lradius 36.0312
lwrist -10.5033
lhand -28.4005 29.0297
lfingers 7.12502
lthumb -1.77274 59.0021
rfemur -14.7275 -11.1607 32.7222
rtibia 8.87986
rfoot -45.415 -28.2576
rtoes 28.4476
lfemur -8.07678 2.5235 -29.0763
ltibia 16.6927
lfoot -43.2777 -14.9367
ltoes 1.88171
297
root 38.1257 15.8975 4.07722 10.2482 -140.62 3.31104
lowerback 14.824 -1.46683 -14.6564
upperback -12.2597 -5.27019 12.1125
thorax -20.9909 1.18206 26.6281
lowerneck -12.2726 -0.441249 -9.99858
upperneck 38.8802 -0.735886 -3.01165
head 15.9744 -3.62835 -0.0709884
rclavicle -5.1684e-015 1.59028e-014
rhumerus -63.9846 54.6806 -99.0907
rradius 51.5902
rwrist -21.0649
rhand -26.4908 -18.4567
rfingers 7.12502
rthumb 0.0716691 -48.4364
lclavicle -5.1684e-015 1.59028e-014
lhumerus -74.9193 26.4215 74.6268
lradius 35.3971
lwrist -10.8531
lhand -28.0211 29.4166
lfingers 7.12502
lthumb -1.4063 59.3918
rfemur -13.8395 -9.88284 32.965
rtibia 8.00756
rfoot -42.6301 -28.0332
rtoes 26.9132
lfemur -8.47806 4.62622 -28.7247
ltibia 19
lfoot -42.353 -16.7784
ltoes 0.214498
298
root 38.122 15.8892 3.99002 10.0852 -143.949 3.33534
lowerback 14.2422 -1.29617 -14.2298
upperback -12.1183 -4.85964 11.8571
thorax -20.6285 1.13918 25.6456
lowerneck -12.127 -0.253681 -9.93483
upperneck 38.8544 -0.714965 -2.62971
head 15.9132 -3.58739 0.0839216
rclavicle -5.1684e-014 9.54166e-014
rhumerus -64.4884 54.1934 -100.09
rradius 51.3894
rwrist -21.0235
rhand -26.4023 -18.6161
rfingers 7.12502
rthumb 0.157174 -48.5958
lclavicle -5.1684e-014 9.54166e-014
lhumerus -74.5218 25.6824 74.7859
lradius 34.721
lwrist -11.2478
lhand -27.3707 29.63
lfingers 7.12502
lthumb -0.77809 59.6083
rfemur -13.0416 -8.67397 33.3483
rtibia 7.32372
rfoot -39.2175 -27.6764
rtoes 24.5685
lfemur -9.15816 6.81218 -28.1874
ltibia 21.7966
lfoot -41.3112 -19.1307
ltoes -3.33202
299
root 38.1218 15.8798 3.90183 9.89496 -147.425 3.48089
lowerback 13.6592 -1.07403 -13.7647
upperback -11.9677 -4.37882 11.6134
thorax -20.2914 1.13736 24.667
lowerneck -12.0046 -0.0398115 -9.81615
upperneck 38.815 -0.657796 -2.24944
head 15.8478 -3.52168 0.234444
rclavicle 1.90833e-014 -6.67916e-014
rhumerus -64.8835 53.6585 -100.915
rradius 51.1374
rwrist -20.8963
rhand -26.3426 -18.8226
rfingers 7.12502
rthumb 0.214803 -48.8023
lclavicle 1.90833e-014 -6.67916e-014
lhumerus -74.009 24.839 75.0443
lradius 34.045
lwrist -11.6237
lhand -26.4901 29.7319
lfingers 7.12502
lthumb 0.072348 59.7116
rfemur -12.3847 -7.53956 33.8528
rtibia 6.88477
rfoot -35.6242 -27.062
rtoes 21.8174
lfemur -10.0629 8.86049 -27.5255
ltibia 24.9926
lfoot -40.1157 -22.1179
ltoes -9.69745
300
root 38.1244 15.8704 3.81555 9.70837 -151.03 3.7017
lowerback 13.1011 -0.803415 -13.2796
upperback -11.8082 -3.83925 11.3748
thorax -19.9857 1.17479 23.6989
lowerneck -11.9117 0.200285 -9.62463
upperneck 38.7662 -0.564168 -1.88187
head 15.7817 -3.43004 0.372318
rclavicle 3.37934e-014 8.90555e-014
rhumerus -65.1149 53.0634 -101.52
rradius 50.8396
rwrist -20.6563
rhand -26.3191 -19.052
rfingers 7.12502
rthumb 0.237546 -49.0316
lclavicle 3.37934e-014 8.90555e-014
lhumerus -73.4497 23.903 75.3883
lradius 33.4707
lwrist -11.9423
lhand -25.4098 29.827
lfingers 7.12502
lthumb 1.11581 59.8039
rfemur -11.8842 -6.41892 34.4329
rtibia 6.70445
rfoot -32.0247 -26.2658
rtoes 18.5972
lfemur -11.1895 10.6418 -26.8024
ltibia 28.5714
lfoot -38.4682 -25.8292
ltoes -19.1743
301
root 38.1286 15.8614 3.73453 9.56353 -154.735 3.93654
lowerback 12.5999 -0.490978 -12.8109
upperback -11.6491 -3.26186 11.1285
thorax -19.7295 1.2499 22.7557
lowerneck -11.8269 0.458263 -9.35824
upperneck 38.6936 -0.446477 -1.53843
head 15.7033 -3.31792 0.490824
rclavicle 2.38542e-015 7.63333e-014
rhumerus -65.1547 52.3989 -101.877
rradius 50.507
rwrist -20.3165
rhand -26.297 -19.2189
rfingers 7.12502
rthumb 0.258896 -49.1985
lclavicle 2.38542e-015 7.63333e-014
lhumerus -72.9042 22.8908 75.792
lradius 33.0921
lwrist -12.1282
lhand -24.2177 29.9718
lfingers 7.12502
lthumb 2.26707 59.9395
rfemur -11.5346 -5.2224 35.0193
rtibia 6.7537
rfoot -28.7842 -25.2913
rtoes 15.4385
lfemur -12.5138 12.0395 -26.1068
ltibia 32.4463
lfoot -35.7963 -29.9726
ltoes -30.4985
302
root 38.1284 15.8542 3.66258 9.46259 -158.409 4.10456
lowerback 12.2271 -0.179474 -12.3323
upperback -11.4997 -2.70358 10.8456
thorax -19.55 1.3339 21.7958
lowerneck -11.7296 0.723034 -9.02649
upperneck 38.57 -0.317966 -1.21952
head 15.5955 -3.18956 0.590276
rclavicle -1.35174e-014 1.27222e-014
rhumerus -64.9656 51.6573 -101.968
rradius 50.1453
rwrist -19.9401
rhand -26.2554 -19.2893
rfingers 7.12502
rthumb 0.299116 -49.2689
lclavicle -1.35174e-014 1.27222e-014
lhumerus -72.3807 21.802 76.2473
lradius 32.8976
lwrist -12.2147
lhand -23.2276 29.9977
lfingers 7.12502
lthumb 3.22329 59.9531
rfemur -11.2614 -3.95854 35.4657
rtibia 6.93374
rfoot -25.9693 -24.2742
rtoes 12.4345
lfemur -14.001 12.8284 -25.5834
ltibia 36.5272
lfoot -31.4766 -34.1827
ltoes -42.3857
303
root 38.1186 15.8489 3.60232 9.41275 -161.962 4.14804
lowerback 12.0083 0.0964169 -11.822
upperback -11.3684 -2.20699 10.4976
thorax -19.451 1.40061 20.774
lowerneck -11.6141 0.987433 -8.63932
upperneck 38.3793 -0.188002 -0.911977
head 15.4505 -3.04641 0.676862
rclavicle 3.18055e-015 7.95139e-015
rhumerus -64.5094 50.8344 -101.788
rradius 49.7604
rwrist -19.6153
rhand -26.1723 -19.2664
rfingers 7.12502
rthumb 0.379327 -49.2458
lclavicle 3.18055e-015 7.95139e-015
lhumerus -71.9034 20.6561 76.6851
lradius 32.9776
lwrist -12.048
lhand -22.1456 30.0135
lfingers 7.12502
lthumb 4.26815 59.9505
rfemur -11.0469 -2.65977 35.6761
rtibia 7.17649
rfoot -23.5867 -23.2481
rtoes 9.82179
lfemur -15.6187 12.9662 -25.3303
ltibia 40.6609
lfoot -24.688 -37.8262
ltoes -52.9298
